<!-- Generated by IcoMoon.io -->
<svg version="1.1" xmlns="http://www.w3.org/2000/svg" width="32" height="32" viewBox="0 0 32 32">
<title>align-left</title>
<path d="M22.629 14.514h-18.629c-0.686 0-1.143-0.457-1.143-1.143s0.457-1.143 1.143-1.143h18.629c0.686 0 1.143 0.457 1.143 1.143s-0.457 1.143-1.143 1.143z"></path>
<path d="M28 9.143h-24c-0.686 0-1.143-0.457-1.143-1.143s0.457-1.143 1.143-1.143h24c0.686 0 1.143 0.457 1.143 1.143s-0.457 1.143-1.143 1.143z"></path>
<path d="M28 19.771h-24c-0.686 0-1.143-0.457-1.143-1.143s0.457-1.143 1.143-1.143h24c0.686 0 1.143 0.457 1.143 1.143s-0.457 1.143-1.143 1.143z"></path>
<path d="M22.629 25.143h-18.629c-0.686 0-1.143-0.457-1.143-1.143s0.457-1.143 1.143-1.143h18.629c0.686 0 1.143 0.457 1.143 1.143s-0.457 1.143-1.143 1.143z"></path>
</svg>
