<!-- Generated by IcoMoon.io -->
<svg version="1.1" xmlns="http://www.w3.org/2000/svg" width="32" height="32" viewBox="0 0 32 32">
<title>lock</title>
<path d="M21.6 29.143h-11.2c-2.4 0-3.657 0-4.686-0.571-1.029-0.457-1.714-1.257-2.286-2.286-0.571-1.143-0.571-2.286-0.571-4.686v-0.571c0-2.4 0-3.657 0.571-4.686 0.457-1.029 1.257-1.714 2.286-2.286 0.686-0.343 1.486-0.457 2.514-0.571v-2.857c0-4.343 3.543-7.771 7.771-7.771 4.343 0 7.771 3.543 7.771 7.771v2.857c1.029 0 1.829 0.229 2.514 0.571 1.029 0.457 1.714 1.257 2.286 2.286 0.571 1.143 0.571 2.286 0.571 4.686v0.571c0 2.4 0 3.657-0.571 4.686-0.457 0.914-1.257 1.714-2.286 2.286s-2.286 0.571-4.686 0.571zM10.4 15.771c-1.943 0-3.086 0-3.657 0.343-0.571 0.229-1.029 0.686-1.257 1.257-0.343 0.571-0.343 1.714-0.343 3.657v0.571c0 1.943 0 3.086 0.343 3.657 0.229 0.571 0.686 1.029 1.257 1.257 0.571 0.343 1.714 0.343 3.657 0.343h11.2c1.943 0 3.086 0 3.657-0.343 0.571-0.229 1.029-0.686 1.257-1.257 0.343-0.571 0.343-1.714 0.343-3.657v-0.571c0-1.943 0-3.086-0.343-3.657-0.229-0.571-0.686-1.029-1.257-1.257-0.571-0.343-1.714-0.343-3.657-0.343h-11.2zM10.514 13.486h11.086v-2.857c0-3.086-2.514-5.486-5.486-5.486s-5.6 2.514-5.6 5.486v2.857z"></path>
</svg>
