<!-- Generated by IcoMoon.io -->
<svg version="1.1" xmlns="http://www.w3.org/2000/svg" width="32" height="32" viewBox="0 0 32 32">
<title>mail</title>
<path d="M22.971 27.771h-13.943c-2.4 0-3.657 0-4.686-0.571-1.029-0.457-1.714-1.257-2.286-2.286-0.571-1.143-0.571-2.286-0.571-4.686v-8.571c0-0.8 0-1.6 0-2.171 0-0.229 0-0.457 0-0.571 0.114-0.8 0.229-1.371 0.457-1.943 0.457-1.029 1.257-1.714 2.286-2.286 1.143-0.571 2.286-0.571 4.686-0.571h13.829c2.4 0 3.657 0 4.686 0.571 1.029 0.457 1.714 1.257 2.286 2.286 0.343 0.571 0.457 1.143 0.457 1.943 0.114 0.229 0.114 0.457 0 0.571 0 0.571 0 1.257 0 2.171v8.571c0 2.4 0 3.657-0.571 4.686-0.457 1.029-1.257 1.714-2.286 2.286-0.8 0.571-1.943 0.571-4.343 0.571zM4.457 24.457c0.229 0.343 0.571 0.571 0.914 0.686 0.571 0.343 1.714 0.343 3.657 0.343h13.829c1.943 0 3.086 0 3.657-0.343 0.343-0.229 0.686-0.457 0.914-0.686l-7.771-7.086-0.571 0.457c-0.914 0.686-1.486 1.029-2.171 1.257-0.571 0.114-1.257 0.114-1.829 0-0.686-0.114-1.257-0.571-2.171-1.257l-0.571-0.457-7.886 7.086zM21.6 16.114l6.514 5.943c0-0.457 0-1.029 0-1.714v-8.571c0-0.114 0-0.114 0-0.229l-6.514 4.571zM3.771 11.543c0 0.114 0 0.114 0 0.229v8.571c0 0.686 0 1.257 0 1.714l6.514-5.943-6.514-4.571zM12.8 15.086l1.371 0.914c0.686 0.457 1.143 0.8 1.371 0.914s0.457 0.114 0.686 0c0.229-0.114 0.686-0.343 1.371-0.914l1.371-0.914c0 0 0 0 0 0l8.914-6.286c0-0.343-0.114-0.571-0.229-0.8-0.229-0.571-0.686-1.029-1.257-1.257-0.571-0.343-1.714-0.343-3.657-0.343h-13.714c-1.943 0-3.086 0-3.657 0.343s-1.029 0.8-1.257 1.257c-0.114 0.229-0.114 0.457-0.229 0.8l8.914 6.286c0 0 0 0 0 0z"></path>
</svg>
