<!-- Generated by IcoMoon.io -->
<svg version="1.1" xmlns="http://www.w3.org/2000/svg" width="20" height="32" viewBox="0 0 20 32">
<title>trident</title>
<path fill="#fff" d="M9 30.9c-1.7-1.3-3-3.2-3.4-5.4h-5.6v-23.1c3 1.5 5.2 4.6 5.4 7.9l0.8 6.5h-0.4c-0.9 0-1.7 0.8-1.7 1.6s0.6 1.4 1.4 1.5l1 0.2c1.7-3.1 2.6-6 2.6-9 0-2.6-0.4-5.3-0.4-8 0.1-1.1 0.5-2.2 1.3-3.1 0.8 0.9 1.3 2 1.3 3.2 0 2.7-0.4 5.4-0.4 8 0 2.9 1 5.9 2.6 9l1-0.2c0.8-0.2 1.4-0.8 1.4-1.5 0-0.8-0.8-1.6-1.7-1.6l-0.4 0.1 0.8-6.5c0.4-3.5 2.4-6.6 5.4-8.1v23.1h-5.6c-0.4 2.2-1.6 4.1-3.4 5.4-0.4 0.3-0.8 0.6-1 1.1-0.2-0.5-0.6-0.8-1-1.1zM2.6 17.6c0.2-0.9 0.9-1.6 1.7-2.1l-0.7-5.4c-0.2-1.7-1-3.2-2-4.4v11.8l1 0.1zM5.5 23.9c0-0.8 0.1-1.5 0.3-2.3l-0.8-0.2c-1.1-0.3-2-1.2-2.3-2.3h-1v4.8h3.8zM9.2 23.9c0-1-0.8-1.8-1.8-2-0.2 0.6-0.3 1.3-0.3 2h2.1zM9.2 25.6h-1.9c0.3 1.3 1 2.4 1.9 3.4v-3.4zM11.8 20.5c-0.7-1.3-1.4-2.6-1.8-4-0.4 1.4-1.1 2.7-1.8 4 0.7 0.2 1.3 0.6 1.8 1.2 0.5-0.5 1.1-1 1.8-1.2zM13 23.9c0-0.7-0.1-1.3-0.3-2-1 0.1-1.8 1-1.8 2h2.1zM12.7 25.6h-1.9v3.4c1-1 1.6-2.2 1.9-3.4zM18.3 23.9v-4.8h-1c-0.3 1.1-1.2 2-2.3 2.3l-0.8 0.2c0.2 0.8 0.3 1.5 0.3 2.3h3.8zM18.3 17.6v-11.8c-1.1 1.2-1.9 2.7-2 4.4l-0.7 5.4c0.8 0.5 1.5 1.2 1.7 2.1h1z"></path>
</svg>
