<!-- Generated by IcoMoon.io -->
<svg version="1.1" xmlns="http://www.w3.org/2000/svg" width="32" height="32" viewBox="0 0 32 32">
<title>x-close</title>
<path d="M24 25.714c-0.457 0-0.914-0.114-1.257-0.457l-6.743-6.857-6.743 6.743c-0.686 0.686-1.714 0.686-2.4 0s-0.686-1.714 0-2.4l6.743-6.743-6.857-6.743c-0.686-0.686-0.686-1.714 0-2.4s1.714-0.686 2.4 0l6.743 6.743 6.743-6.743c0.686-0.686 1.714-0.686 2.4 0s0.686 1.714 0 2.4l-6.629 6.743 6.743 6.743c0.686 0.686 0.686 1.714 0 2.4-0.229 0.457-0.686 0.571-1.143 0.571z"></path>
</svg>
