<svg aria-hidden="true" style="width:0;height:0;position:absolute;overflow:hidden" xmlns="http://www.w3.org/2000/svg"><defs><symbol id="icon-align-left" viewBox="0 0 32 32"><path d="M22.629 14.514H4c-.686 0-1.143-.457-1.143-1.143S3.314 12.228 4 12.228h18.629c.686 0 1.143.457 1.143 1.143s-.457 1.143-1.143 1.143zM28 9.143H4c-.686 0-1.143-.457-1.143-1.143S3.314 6.857 4 6.857h24c.686 0 1.143.457 1.143 1.143S28.686 9.143 28 9.143zM28 19.771H4c-.686 0-1.143-.457-1.143-1.143S3.314 17.485 4 17.485h24c.686 0 1.143.457 1.143 1.143s-.457 1.143-1.143 1.143zM22.629 25.143H4c-.686 0-1.143-.457-1.143-1.143S3.314 22.857 4 22.857h18.629c.686 0 1.143.457 1.143 1.143s-.457 1.143-1.143 1.143z"/></symbol><symbol id="icon-arrow_down" viewBox="0 0 56 32"><path fill="#4f2ee8" style="fill:var(--color1,#4f2ee8)" d="M25.395 21.134a3.675 3.675 0 0 0 2.603 1.085 3.67 3.67 0 0 0 2.603-1.085l16.794-16.83a3.675 3.675 0 0 1 2.603-1.085 3.67 3.67 0 0 1 2.603 6.255l-16.83 16.83a11 11 0 0 1-15.546 0L3.395 9.474a3.669 3.669 0 0 1-.791-3.975A3.659 3.659 0 0 1 4.588 3.5a3.651 3.651 0 0 1 2.82 0c.447.186.852.459 1.193.803l16.793 16.83z"/></symbol><symbol id="icon-arrow-right" viewBox="0 0 43 32"><path fill="none" stroke="#eac645" style="stroke:var(--color2,#eac645)" stroke-linejoin="round" stroke-linecap="round" stroke-width="5.333" d="M3.556 16h35.555m0 0L25.778 2.667M39.111 16 25.778 29.333"/></symbol><symbol id="icon-arrow-up" viewBox="0 0 55 32"><path fill="#fff" style="fill:var(--color3,#fff)" d="M1.091 25.309 25.527.8c.291-.291.606-.496.945-.617.339-.122.703-.183 1.091-.183s.752.061 1.091.183c.339.12.655.326.945.617l24.509 24.509c.679.679 1.018 1.527 1.018 2.545s-.364 1.891-1.091 2.618c-.727.727-1.576 1.091-2.545 1.091s-1.818-.364-2.545-1.091L27.563 9.09 6.181 30.472c-.679.679-1.515 1.018-2.508 1.018-.995 0-1.856-.364-2.583-1.091s-1.091-1.576-1.091-2.545c0-.97.364-1.818 1.091-2.545z"/></symbol><symbol id="icon-cart" viewBox="0 0 25 32"><path d="M22.815 8.593h-4.444V7.112a5.93 5.93 0 0 0-5.926-5.926 5.93 5.93 0 0 0-5.926 5.926v1.481H2.075a1.482 1.482 0 0 0-1.482 1.482v16.296a4.444 4.444 0 0 0 4.445 4.445h14.815a4.444 4.444 0 0 0 4.445-4.445V10.075a1.482 1.482 0 0 0-1.482-1.482zM9.481 7.111a2.962 2.962 0 0 1 5.058-2.095c.556.556.868 1.309.868 2.095v1.481H9.481V7.111zM21.333 26.37a1.478 1.478 0 0 1-1.481 1.481H5.037a1.482 1.482 0 0 1-1.482-1.481V11.555h2.963v1.481a1.482 1.482 0 1 0 2.964 0v-1.481h5.926v1.481a1.482 1.482 0 1 0 2.963 0v-1.481h2.963V26.37z"/></symbol><symbol id="icon-lock" viewBox="0 0 32 32"><path d="M21.6 29.143H10.4c-2.4 0-3.657 0-4.686-.571-1.029-.457-1.714-1.257-2.286-2.286-.571-1.143-.571-2.286-.571-4.686v-.571c0-2.4 0-3.657.571-4.686.457-1.029 1.257-1.714 2.286-2.286.686-.343 1.486-.457 2.514-.571v-2.857c0-4.343 3.543-7.771 7.771-7.771 4.343 0 7.771 3.543 7.771 7.771v2.857c1.029 0 1.829.229 2.514.571 1.029.457 1.714 1.257 2.286 2.286.571 1.143.571 2.286.571 4.686v.571c0 2.4 0 3.657-.571 4.686-.457.914-1.257 1.714-2.286 2.286s-2.286.571-4.686.571zM10.4 15.771c-1.943 0-3.086 0-3.657.343a2.266 2.266 0 0 0-1.257 1.257c-.343.571-.343 1.714-.343 3.657v.571c0 1.943 0 3.086.343 3.657a2.266 2.266 0 0 0 1.257 1.257c.571.343 1.714.343 3.657.343h11.2c1.943 0 3.086 0 3.657-.343a2.266 2.266 0 0 0 1.257-1.257c.343-.571.343-1.714.343-3.657v-.571c0-1.943 0-3.086-.343-3.657a2.266 2.266 0 0 0-1.257-1.257c-.571-.343-1.714-.343-3.657-.343H10.4zm.114-2.285H21.6v-2.857c0-3.086-2.514-5.486-5.486-5.486s-5.6 2.514-5.6 5.486v2.857z"/></symbol><symbol id="icon-logo" viewBox="0 0 32 32"><path fill="#f6f6f6" style="fill:var(--color4,#f6f6f6)" d="m0 0 16.343 16.171L32 32V0H0z"/><path fill="#f6f6f6" style="fill:var(--color4,#f6f6f6)" d="M4.457 4.229 16.4 16.058l11.257 11.486h-23.2V4.23z"/><path fill="#4f2ee8" style="fill:var(--color1,#4f2ee8)" d="M27.733 27.618 15.79 15.789 4.533 4.303h23.2v23.314z"/><path fill="#4f2ee8" style="fill:var(--color1,#4f2ee8)" d="m9.257 9.029 13.6 13.6h-13.6v-13.6z"/><path fill="#f6f6f6" style="fill:var(--color4,#f6f6f6)" d="m9.257 9.029 13.6 13.6v-13.6h-13.6z"/></symbol><symbol id="icon-mail" viewBox="0 0 32 32"><path d="M22.971 27.771H9.028c-2.4 0-3.657 0-4.686-.571-1.029-.457-1.714-1.257-2.286-2.286-.571-1.143-.571-2.286-.571-4.686V8.915c.114-.8.229-1.371.457-1.943.457-1.029 1.257-1.714 2.286-2.286 1.143-.571 2.286-.571 4.686-.571h13.829c2.4 0 3.657 0 4.686.571 1.029.457 1.714 1.257 2.286 2.286.343.571.457 1.143.457 1.943.114.229.114.457 0 .571V20.228c0 2.4 0 3.657-.571 4.686-.457 1.029-1.257 1.714-2.286 2.286-.8.571-1.943.571-4.343.571zM4.457 24.457c.229.343.571.571.914.686.571.343 1.714.343 3.657.343h13.829c1.943 0 3.086 0 3.657-.343.343-.229.686-.457.914-.686l-7.771-7.086-.571.457c-.914.686-1.486 1.029-2.171 1.257a4.933 4.933 0 0 1-1.829 0c-.686-.114-1.257-.571-2.171-1.257l-.571-.457-7.886 7.086zM21.6 16.114l6.514 5.943V11.543L21.6 16.114zM3.771 11.543v10.514l6.514-5.943-6.514-4.571zm9.029 3.543 1.371.914c.686.457 1.143.8 1.371.914s.457.114.686 0c.229-.114.686-.343 1.371-.914l1.371-.914L27.884 8.8c0-.343-.114-.571-.229-.8a2.266 2.266 0 0 0-1.257-1.257c-.571-.343-1.714-.343-3.657-.343H9.027c-1.943 0-3.086 0-3.657.343S4.341 7.543 4.113 8c-.114.229-.114.457-.229.8l8.914 6.286z"/></symbol><symbol id="icon-open-book" viewBox="0 0 35 32"><path fill="#4f2ee8" style="fill:var(--color1,#4f2ee8)" d="M34.352 7.713A16.665 16.665 0 0 0 32 6.712v19.742a16.089 16.089 0 0 0-5.6-1.017c-3.04 0-6.048.886-8.8 2.593V8.174c-2.592-1.526-5.584-2.429-8.8-2.429-2.864 0-5.568.722-7.952 1.969C.32 7.977 0 8.551 0 9.158v19.824a1.6 1.6 0 0 0 1.6 1.625c.256 0 .512-.066.768-.197 1.936-1.034 4.112-1.69 6.432-1.69 3.312 0 6.368 1.346 8.8 3.282 2.432-1.936 5.488-3.282 8.8-3.282 2.32 0 4.496.656 6.432 1.707.256.131.512.197.768.197.832 0 1.6-.673 1.6-1.625V9.159c0-.607-.32-1.182-.848-1.444zM14.4 26.453c-1.824-.673-3.696-1.017-5.6-1.017s-3.776.345-5.6 1.017V10.19a13.941 13.941 0 0 1 5.6-1.165c1.92 0 3.824.41 5.6 1.182v16.246zM28.8 0l-8 8.205v15.59l8-7.385V0z"/></symbol><symbol id="icon-trash-bin" viewBox="0 0 32 32"><path fill="#4f2ee8" style="fill:var(--color1,#4f2ee8)" d="M32 16c0 8.837-7.163 16-16 16S0 24.837 0 16 7.163 0 16 0s16 7.163 16 16z"/><path fill="none" stroke="#fff" style="stroke:var(--color3,#fff)" stroke-linejoin="round" stroke-linecap="round" stroke-width="1.684" d="M13.684 9.053h4.632m-9.263 2.315h13.895m-1.544 0-.541 8.12c-.081 1.218-.122 1.827-.385 2.289a2.322 2.322 0 0 1-1.002.938c-.478.232-1.089.232-2.31.232h-2.33c-1.221 0-1.832 0-2.31-.232a2.31 2.31 0 0 1-1.002-.938c-.263-.462-.304-1.071-.385-2.289l-.541-8.12m3.858 3.474v3.86m3.088-3.86v3.86"/></symbol><symbol id="icon-trident" viewBox="0 0 20 32"><path fill="#fff" style="fill:var(--color3,#fff)" d="M9 30.9c-1.7-1.3-3-3.2-3.4-5.4H0V2.4C3 3.9 5.2 7 5.4 10.3l.8 6.5h-.4c-.9 0-1.7.8-1.7 1.6s.6 1.4 1.4 1.5l1 .2c1.7-3.1 2.6-6 2.6-9 0-2.6-.4-5.3-.4-8C8.8 2 9.2.9 10 0c.8.9 1.3 2 1.3 3.2 0 2.7-.4 5.4-.4 8 0 2.9 1 5.9 2.6 9l1-.2c.8-.2 1.4-.8 1.4-1.5 0-.8-.8-1.6-1.7-1.6l-.4.1.8-6.5C15 7 17 3.9 20 2.4v23.1h-5.6c-.4 2.2-1.6 4.1-3.4 5.4-.4.3-.8.6-1 1.1-.2-.5-.6-.8-1-1.1zM2.6 17.6c.2-.9.9-1.6 1.7-2.1l-.7-5.4c-.2-1.7-1-3.2-2-4.4v11.8l1 .1zm2.9 6.3c0-.8.1-1.5.3-2.3l-.8-.2c-1.1-.3-2-1.2-2.3-2.3h-1v4.8h3.8zm3.7 0c0-1-.8-1.8-1.8-2-.2.6-.3 1.3-.3 2h2.1zm0 1.7H7.3c.3 1.3 1 2.4 1.9 3.4v-3.4zm2.6-5.1c-.7-1.3-1.4-2.6-1.8-4-.4 1.4-1.1 2.7-1.8 4 .7.2 1.3.6 1.8 1.2.5-.5 1.1-1 1.8-1.2zm1.2 3.4c0-.7-.1-1.3-.3-2-1 .1-1.8 1-1.8 2H13zm-.3 1.7h-1.9V29c1-1 1.6-2.2 1.9-3.4zm5.6-1.7v-4.8h-1c-.3 1.1-1.2 2-2.3 2.3l-.8.2c.2.8.3 1.5.3 2.3h3.8zm0-6.3V5.8c-1.1 1.2-1.9 2.7-2 4.4l-.7 5.4c.8.5 1.5 1.2 1.7 2.1h1z"/></symbol><symbol id="icon-user" viewBox="0 0 23 32"><path fill="#4f2ee8" style="fill:var(--color1,#4f2ee8)" d="M.296 30.963a11.26 11.26 0 1 1 22.519 0H.297zm11.26-12.667c-4.666 0-8.444-3.779-8.444-8.444s3.779-8.444 8.444-8.444C16.222 1.408 20 5.187 20 9.852s-3.779 8.444-8.444 8.444z"/></symbol><symbol id="icon-x-close" viewBox="0 0 32 32"><path d="M24 25.714c-.457 0-.914-.114-1.257-.457L16 18.4l-6.743 6.743c-.686.686-1.714.686-2.4 0s-.686-1.714 0-2.4L13.6 16 6.743 9.257c-.686-.686-.686-1.714 0-2.4s1.714-.686 2.4 0l6.743 6.743 6.743-6.743c.686-.686 1.714-.686 2.4 0s.686 1.714 0 2.4L18.4 16l6.743 6.743c.686.686.686 1.714 0 2.4-.229.457-.686.571-1.143.571z"/></symbol><symbol id="icon-caret-down" viewBox="0 0 28 32"><path fill="#fff" style="fill:var(--color1,#fff)" d="M5.898 12h16.513l-7.423 8.391c-.221.25-.521.39-.834.39s-.613-.14-.834-.39L5.897 12z"/><symbol id="icon-icloud" viewBox="0 0 32 32"><path d="M14.295 14.296c0 2.673-2.138 4.839-4.775 4.839s-4.775-2.167-4.775-4.839c0-2.673 2.138-4.839 4.775-4.839s4.775 2.167 4.775 4.839z"/><path d="M30.667 18.79c0-3.245-2.596-5.877-5.799-5.877s-5.799 2.631-5.799 5.877c0 .117.011.231.017.346h-5.515a6.3 6.3 0 0 0 .04-.691c0-3.437-2.749-6.222-6.139-6.222s-6.139 2.785-6.139 6.222 2.749 6.222 6.139 6.222h17.861c3.043-.18 5.333-2.748 5.333-5.877z"/><path d="M13.45 17.041c-.629-2.76-3.063-4.819-5.977-4.819a6.05 6.05 0 0 0-2.477.531 4.887 4.887 0 0 0-.252 1.543c0 2.673 2.138 4.839 4.775 4.839a4.748 4.748 0 0 0 3.931-2.094z"/><path d="M25.891 13.951c0 4.391-3.512 7.951-7.845 7.951s-7.845-3.56-7.845-7.951S13.713 6 18.046 6s7.845 3.56 7.845 7.951z"/><path d="M11.349 9.826a7.98 7.98 0 0 0-1.147 4.124c0 1.739.557 3.343 1.491 4.651a4.843 4.843 0 0 0 2.601-4.305 4.84 4.84 0 0 0-2.945-4.47z"/><path d="M10.271 12.912a7.976 7.976 0 0 0 1.421 5.689l.011-.005a4.813 4.813 0 0 0 1.035-.73c.027-.025.051-.053.077-.079a4.81 4.81 0 0 0 .339-.361c.047-.055.089-.115.133-.172.056-.073.109-.149.161-.225a6.22 6.22 0 0 0-3.175-4.117zM19.07 18.79c0 1.055.278 2.042.757 2.897 3.473-.819 6.064-3.968 6.064-7.737a8.25 8.25 0 0 0-.061-.949 5.745 5.745 0 0 0-.962-.087c-3.202 0-5.798 2.631-5.798 5.877z"/></symbol><symbol id="icon-github" viewBox="0 0 32 32"><path d="M16 3C8.82 3 3 8.82 3 16c0 6.139 4.256 11.28 9.977 12.643-.296-.07-.589-.149-.877-.239v-2.979s-.488.163-1.137.163c-1.819 0-2.574-1.622-2.763-2.438a2.529 2.529 0 0 0-.734-1.255c-.383-.342-.563-.343-.566-.46-.005-.245.329-.235.487-.235.813 0 1.428.864 1.714 1.311.709 1.104 1.469 1.288 1.861 1.288.488 0 .909-.073 1.198-.213.134-.944.554-1.785 1.239-2.387-3.049-.61-5.2-2.358-5.2-5.2 0-1.464.588-2.809 1.566-3.896-.1-.284-.267-.857-.267-1.791 0-.617.043-1.376.325-2.113 0 0 1.854.013 3.603 1.669.807-.235 1.671-.369 2.572-.369s1.766.134 2.572.369c1.748-1.656 3.602-1.669 3.602-1.669.284.737.325 1.495.325 2.113 0 1.008-.134 1.595-.216 1.848.949 1.076 1.516 2.401 1.516 3.839 0 2.842-2.151 4.59-5.2 5.2.814.715 1.3 1.756 1.3 2.925v4.279c-.288.09-.581.169-.878.239 5.721-1.363 9.977-6.505 9.977-12.643 0-7.18-5.82-13-13-13zm.907 25.965zm1.986-.292zM16 29zm-1.106-.05z"/></symbol><symbol id="icon-google" viewBox="0 0 32 32"><path fill="#fbc02d" style="fill:var(--color1,#fbc02d)" d="M29.074 13.389H28v-.055H16v5.333h7.535C22.436 21.772 19.482 24 16 24a8 8 0 0 1 0-16c2.039 0 3.895.769 5.307 2.026l3.771-3.771a13.274 13.274 0 0 0-9.079-3.588C8.636 2.667 2.666 8.637 2.666 16s5.97 13.333 13.333 13.333S29.332 23.363 29.332 16c0-.894-.092-1.767-.259-2.611z"/><path fill="#e53935" style="fill:var(--color2,#e53935)" d="m4.204 9.794 4.381 3.213A7.996 7.996 0 0 1 16 8c2.039 0 3.895.769 5.307 2.026l3.771-3.771a13.274 13.274 0 0 0-9.079-3.588c-5.121 0-9.563 2.891-11.796 7.127z"/><path fill="#4caf50" style="fill:var(--color3,#4caf50)" d="M16 29.333c3.444 0 6.573-1.318 8.939-3.461l-4.127-3.492A7.942 7.942 0 0 1 15.999 24c-3.468 0-6.413-2.211-7.522-5.297l-4.348 3.35c2.207 4.318 6.688 7.281 11.87 7.281z"/><path fill="#1565c0" style="fill:var(--color4,#1565c0)" d="m29.074 13.389-.011-.055H16v5.333h7.535a8.026 8.026 0 0 1-2.725 3.714l.002-.001 4.127 3.492c-.292.265 4.394-3.205 4.394-9.871 0-.894-.092-1.767-.259-2.611z"/></symbol><symbol id="icon-Bookshelf" viewBox="0 0 178 32"><path d="M22.176 8.533c0-4.731-3.497-7.406-9.545-7.406H0v29.417h13.33c6.089 0 9.998-2.921 9.998-8.599 0-4.402-2.633-6.665-5.719-7.2v-.082c2.427-.823 4.567-2.51 4.567-6.13zm-17.28 4.772V5.282h7.858c2.921 0 4.526 1.44 4.526 4.032s-1.317 3.991-4.814 3.991h-7.57zm0 3.662h8.599c3.086 0 4.937 1.687 4.937 4.69 0 2.757-1.275 4.731-5.472 4.731H4.896v-9.422zM35.89 31.161c-6.583 0-10.574-4.567-10.574-11.109S29.307 8.943 35.89 8.943s10.574 4.567 10.574 11.109-3.991 11.109-10.574 11.109zm0-3.538c4.114 0 6.254-3.25 6.254-7.57 0-4.361-2.139-7.57-6.254-7.57s-6.254 3.209-6.254 7.57c0 4.32 2.139 7.57 6.254 7.57zM58.912 31.161c-6.583 0-10.574-4.567-10.574-11.109S52.329 8.943 58.912 8.943s10.574 4.567 10.574 11.109-3.991 11.109-10.574 11.109zm0-3.538c4.114 0 6.254-3.25 6.254-7.57 0-4.361-2.139-7.57-6.254-7.57s-6.254 3.209-6.254 7.57c0 4.32 2.139 7.57 6.254 7.57zM72.472 1.127v29.417h4.32v-7.611l2.921-2.757 6.624 10.368h5.184l-8.846-13.207 7.982-7.817H85.35l-8.558 8.434V1.127h-4.32zM101.935 17.831c-3.045-.699-5.39-.864-5.39-3.003 0-1.481 1.399-2.469 3.991-2.469 3.374 0 4.197 1.687 4.485 3.333h4.197c-.288-3.662-3.003-6.747-8.722-6.747-5.266 0-8.311 2.757-8.311 6.213 0 4.773 4.526 5.431 7.858 6.213 3.086.741 5.595.946 5.595 3.579 0 1.317-1.275 2.798-4.279 2.798-4.443 0-5.431-1.934-5.637-4.197h-4.197c.206 4.443 3.127 7.611 9.915 7.611 5.102 0 8.558-2.51 8.558-6.542 0-5.019-4.197-5.883-8.064-6.789zM124.123 8.944c-3.538 0-5.719 1.646-6.83 3.291h-.082V1.126h-4.32v29.417h4.32V17.748c0-3.127 2.263-5.143 5.431-5.143 3.003 0 4.197 1.81 4.197 4.649v13.289h4.361V16.02c0-4.814-3.086-7.077-7.077-7.077zM144.448 27.623c-3.826 0-6.089-2.921-6.089-6.459h16.128c0-7.488-3.333-12.219-10.121-12.219-6.336 0-10.327 4.279-10.327 11.109 0 6.583 3.991 11.109 10.533 11.109 5.39 0 8.517-3.045 9.586-7.035h-4.32c-.37 1.275-1.81 3.497-5.39 3.497zm-.082-15.264c3.497 0 5.801 2.345 5.801 5.595h-11.808c0-3.25 2.51-5.595 6.007-5.595zM157.531 1.127v29.417h4.361V1.127h-4.361zM176.003 4.665V1.127a15.12 15.12 0 0 0-2.88-.288c-3.456 0-5.349 1.563-5.349 6.007V9.52h-3.003v3.538h3.003v17.486h4.361V13.058h3.867V9.52h-3.867V7.216c0-2.386 1.07-2.674 3.867-2.551z"/></symbol><symbol id="icon-eye" viewBox="0 0 32 32"><path d="M16 6C9.021 6 2.972 10.064 0 16c2.972 5.936 9.021 10 16 10s13.027-4.064 16-10c-2.972-5.936-9.021-10-16-10zm7.889 5.303A15.212 15.212 0 0 1 28.559 16a15.223 15.223 0 0 1-4.67 4.697C21.527 22.204 18.799 23 16 23s-5.527-.796-7.889-2.303A15.212 15.212 0 0 1 3.441 16a15.223 15.223 0 0 1 5.041-4.925 8 8 0 1 0 15.036 0c.124.074.248.15.371.228zM16 13a3 3 0 1 1-6 0 3 3 0 0 1 6 0z"/></symbol><symbol id="icon-eye-blocked" viewBox="0 0 32 32"><path d="M29.561.439a1.5 1.5 0 0 0-2.121 0l-6.318 6.318A17.626 17.626 0 0 0 16 6C9.021 6 2.972 10.064 0 16a18.323 18.323 0 0 0 5.407 6.472L.439 27.44a1.5 1.5 0 1 0 2.122 2.121l27-27a1.5 1.5 0 0 0 0-2.121zM13 10a3 3 0 0 1 2.841 2.037l-3.804 3.804A3 3 0 0 1 13 10zm-9.559 6a15.223 15.223 0 0 1 5.041-4.925A7.985 7.985 0 0 0 8 13.812c0 1.715.54 3.304 1.459 4.607l-1.904 1.904A15.219 15.219 0 0 1 3.441 16zM24 13.813c0-.849-.133-1.667-.378-2.434L13.566 21.435a8 8 0 0 0 10.435-7.622z"/><path d="M25.938 9.062 23.77 11.23l.118.074a15.212 15.212 0 0 1 4.67 4.697 15.223 15.223 0 0 1-4.67 4.697 14.642 14.642 0 0 1-11.45 1.864l-2.403 2.403a17.587 17.587 0 0 0 5.964 1.036c6.978 0 13.027-4.064 16-10a18.292 18.292 0 0 0-6.062-6.938z"/></symbol><symbol id="icon-trash-03" viewBox="0 0 32 32"><path fill="none" stroke="#fff" style="stroke:var(--color1,#fff)" stroke-linejoin="round" stroke-linecap="round" stroke-width="2.667" d="M12 4h8M4 8h24m-2.667 0-.935 14.026c-.14 2.104-.21 3.156-.665 3.954a4.007 4.007 0 0 1-1.731 1.62c-.826.4-1.881.4-3.99.4h-4.025c-2.109 0-3.163 0-3.99-.4a4.001 4.001 0 0 1-1.731-1.62c-.455-.798-.525-1.85-.665-3.954L6.666 8m6.667 6v6.667M18.667 14v6.667"/></symbol></symbol></defs></svg>