<svg width="19" height="11" viewBox="0 0 19 11" fill="none" xmlns="http://www.w3.org/2000/svg">
<path d="M0.375193 8.7L8.7752 0.275C8.87519 0.175 8.98353 0.104333 9.10019 0.063C9.21686 0.021 9.34186 0 9.47519 0C9.60853 0 9.73353 0.021 9.85019 0.063C9.96686 0.104333 10.0752 0.175 10.1752 0.275L18.6002 8.7C18.8335 8.93333 18.9502 9.225 18.9502 9.575C18.9502 9.925 18.8252 10.225 18.5752 10.475C18.3252 10.725 18.0335 10.85 17.7002 10.85C17.3669 10.85 17.0752 10.725 16.8252 10.475L9.47519 3.125L2.12519 10.475C1.89186 10.7083 1.60453 10.825 1.26319 10.825C0.921192 10.825 0.625193 10.7 0.375193 10.45C0.125193 10.2 0.000192642 9.90833 0.000192642 9.575C0.000192642 9.24167 0.125193 8.95 0.375193 8.7Z" fill="white"/>
</svg>
