<svg aria-hidden="true" style="position: absolute; width: 0; height: 0; overflow: hidden;" version="1.1" xmlns="http://www.w3.org/2000/svg" xmlns:xlink="http://www.w3.org/1999/xlink">
<defs>
<symbol id="icon-align-left" viewBox="0 0 32 32">
<path d="M22.629 14.514h-18.629c-0.686 0-1.143-0.457-1.143-1.143s0.457-1.143 1.143-1.143h18.629c0.686 0 1.143 0.457 1.143 1.143s-0.457 1.143-1.143 1.143z"></path>
<path d="M28 9.143h-24c-0.686 0-1.143-0.457-1.143-1.143s0.457-1.143 1.143-1.143h24c0.686 0 1.143 0.457 1.143 1.143s-0.457 1.143-1.143 1.143z"></path>
<path d="M28 19.771h-24c-0.686 0-1.143-0.457-1.143-1.143s0.457-1.143 1.143-1.143h24c0.686 0 1.143 0.457 1.143 1.143s-0.457 1.143-1.143 1.143z"></path>
<path d="M22.629 25.143h-18.629c-0.686 0-1.143-0.457-1.143-1.143s0.457-1.143 1.143-1.143h18.629c0.686 0 1.143 0.457 1.143 1.143s-0.457 1.143-1.143 1.143z"></path>
</symbol>
<symbol id="icon-arrow_down" viewBox="0 0 56 32">
<path fill="#4f2ee8" style="fill: var(--color1, #4f2ee8)" d="M25.395 21.134c0.341 0.344 0.746 0.616 1.193 0.803s0.926 0.282 1.41 0.282 0.963-0.096 1.41-0.282c0.447-0.186 0.852-0.459 1.193-0.803l16.794-16.83c0.341-0.344 0.746-0.616 1.193-0.803s0.926-0.282 1.41-0.282c0.484 0 0.963 0.096 1.41 0.282s0.852 0.459 1.193 0.803c0.683 0.687 1.066 1.616 1.066 2.585s-0.383 1.898-1.066 2.585l-16.83 16.83c-2.063 2.060-4.858 3.217-7.773 3.217s-5.711-1.157-7.773-3.217l-16.83-16.83c-0.677-0.683-1.059-1.605-1.063-2.567-0.003-0.483 0.090-0.961 0.272-1.408s0.451-0.853 0.791-1.196c0.341-0.344 0.746-0.616 1.193-0.803s0.926-0.282 1.41-0.282 0.963 0.096 1.41 0.282c0.447 0.186 0.852 0.459 1.193 0.803l16.793 16.83z"></path>
</symbol>
<symbol id="icon-arrow-right" viewBox="0 0 43 32">
<path fill="none" stroke="#eac645" style="stroke: var(--color2, #eac645)" stroke-linejoin="round" stroke-linecap="round" stroke-miterlimit="4" stroke-width="5.3333" d="M3.556 16h35.555M39.111 16l-13.333-13.333M39.111 16l-13.333 13.333"></path>
</symbol>
<symbol id="icon-arrow-up" viewBox="0 0 55 32">
<path fill="#fff" style="fill: var(--color3, #fff)" d="M1.091 25.309l24.436-24.509c0.291-0.291 0.606-0.496 0.945-0.617 0.339-0.122 0.703-0.183 1.091-0.183s0.752 0.061 1.091 0.183c0.339 0.12 0.655 0.326 0.945 0.617l24.509 24.509c0.679 0.679 1.018 1.527 1.018 2.545s-0.364 1.891-1.091 2.618c-0.727 0.727-1.576 1.091-2.545 1.091s-1.818-0.364-2.545-1.091l-21.382-21.382-21.382 21.382c-0.679 0.679-1.515 1.018-2.508 1.018-0.995 0-1.856-0.364-2.583-1.091s-1.091-1.576-1.091-2.545c0-0.97 0.364-1.818 1.091-2.545z"></path>
</symbol>
<symbol id="icon-cart" viewBox="0 0 25 32">
<path d="M22.815 8.593h-4.444v-1.481c0-1.572-0.624-3.079-1.736-4.19s-2.619-1.736-4.19-1.736c-1.572 0-3.079 0.624-4.19 1.736s-1.736 2.619-1.736 4.19v1.481h-4.444c-0.393 0-0.77 0.156-1.048 0.434s-0.434 0.655-0.434 1.048v16.296c0 1.179 0.468 2.309 1.302 3.143s1.964 1.302 3.143 1.302h14.815c1.179 0 2.309-0.468 3.143-1.302s1.302-1.964 1.302-3.143v-16.296c0-0.393-0.156-0.77-0.434-1.048s-0.655-0.434-1.048-0.434zM9.481 7.111c0-0.786 0.312-1.539 0.868-2.095s1.309-0.868 2.095-0.868c0.786 0 1.539 0.312 2.095 0.868s0.868 1.309 0.868 2.095v1.481h-5.926v-1.481zM21.333 26.37c0 0.393-0.156 0.77-0.434 1.047s-0.655 0.434-1.047 0.434h-14.815c-0.393 0-0.77-0.156-1.048-0.434s-0.434-0.655-0.434-1.047v-14.815h2.963v1.481c0 0.393 0.156 0.77 0.434 1.048s0.655 0.434 1.048 0.434c0.393 0 0.77-0.156 1.048-0.434s0.434-0.655 0.434-1.048v-1.481h5.926v1.481c0 0.393 0.156 0.77 0.434 1.048s0.655 0.434 1.048 0.434c0.393 0 0.77-0.156 1.047-0.434s0.434-0.655 0.434-1.048v-1.481h2.963v14.815z"></path>
</symbol>
<symbol id="icon-lock" viewBox="0 0 32 32">
<path d="M21.6 29.143h-11.2c-2.4 0-3.657 0-4.686-0.571-1.029-0.457-1.714-1.257-2.286-2.286-0.571-1.143-0.571-2.286-0.571-4.686v-0.571c0-2.4 0-3.657 0.571-4.686 0.457-1.029 1.257-1.714 2.286-2.286 0.686-0.343 1.486-0.457 2.514-0.571v-2.857c0-4.343 3.543-7.771 7.771-7.771 4.343 0 7.771 3.543 7.771 7.771v2.857c1.029 0 1.829 0.229 2.514 0.571 1.029 0.457 1.714 1.257 2.286 2.286 0.571 1.143 0.571 2.286 0.571 4.686v0.571c0 2.4 0 3.657-0.571 4.686-0.457 0.914-1.257 1.714-2.286 2.286s-2.286 0.571-4.686 0.571zM10.4 15.771c-1.943 0-3.086 0-3.657 0.343-0.571 0.229-1.029 0.686-1.257 1.257-0.343 0.571-0.343 1.714-0.343 3.657v0.571c0 1.943 0 3.086 0.343 3.657 0.229 0.571 0.686 1.029 1.257 1.257 0.571 0.343 1.714 0.343 3.657 0.343h11.2c1.943 0 3.086 0 3.657-0.343 0.571-0.229 1.029-0.686 1.257-1.257 0.343-0.571 0.343-1.714 0.343-3.657v-0.571c0-1.943 0-3.086-0.343-3.657-0.229-0.571-0.686-1.029-1.257-1.257-0.571-0.343-1.714-0.343-3.657-0.343h-11.2zM10.514 13.486h11.086v-2.857c0-3.086-2.514-5.486-5.486-5.486s-5.6 2.514-5.6 5.486v2.857z"></path>
</symbol>
<symbol id="icon-logo" viewBox="0 0 32 32">
<path fill="#f6f6f6" style="fill: var(--color4, #f6f6f6)" d="M0 0l16.343 16.171 15.657 15.829v-32h-32z"></path>
<path fill="#f6f6f6" style="fill: var(--color4, #f6f6f6)" d="M4.457 4.229l11.943 11.829 11.257 11.486h-23.2v-23.314z"></path>
<path fill="#4f2ee8" style="fill: var(--color1, #4f2ee8)" d="M27.733 27.618l-11.943-11.829-11.257-11.486h23.2v23.314z"></path>
<path fill="#4f2ee8" style="fill: var(--color1, #4f2ee8)" d="M9.257 9.029l13.6 13.6h-13.6v-13.6z"></path>
<path fill="#f6f6f6" style="fill: var(--color4, #f6f6f6)" d="M9.257 9.029l13.6 13.6v-13.6h-13.6z"></path>
</symbol>
<symbol id="icon-mail" viewBox="0 0 32 32">
<path d="M22.971 27.771h-13.943c-2.4 0-3.657 0-4.686-0.571-1.029-0.457-1.714-1.257-2.286-2.286-0.571-1.143-0.571-2.286-0.571-4.686v-8.571c0-0.8 0-1.6 0-2.171 0-0.229 0-0.457 0-0.571 0.114-0.8 0.229-1.371 0.457-1.943 0.457-1.029 1.257-1.714 2.286-2.286 1.143-0.571 2.286-0.571 4.686-0.571h13.829c2.4 0 3.657 0 4.686 0.571 1.029 0.457 1.714 1.257 2.286 2.286 0.343 0.571 0.457 1.143 0.457 1.943 0.114 0.229 0.114 0.457 0 0.571 0 0.571 0 1.257 0 2.171v8.571c0 2.4 0 3.657-0.571 4.686-0.457 1.029-1.257 1.714-2.286 2.286-0.8 0.571-1.943 0.571-4.343 0.571zM4.457 24.457c0.229 0.343 0.571 0.571 0.914 0.686 0.571 0.343 1.714 0.343 3.657 0.343h13.829c1.943 0 3.086 0 3.657-0.343 0.343-0.229 0.686-0.457 0.914-0.686l-7.771-7.086-0.571 0.457c-0.914 0.686-1.486 1.029-2.171 1.257-0.571 0.114-1.257 0.114-1.829 0-0.686-0.114-1.257-0.571-2.171-1.257l-0.571-0.457-7.886 7.086zM21.6 16.114l6.514 5.943c0-0.457 0-1.029 0-1.714v-8.571c0-0.114 0-0.114 0-0.229l-6.514 4.571zM3.771 11.543c0 0.114 0 0.114 0 0.229v8.571c0 0.686 0 1.257 0 1.714l6.514-5.943-6.514-4.571zM12.8 15.086l1.371 0.914c0.686 0.457 1.143 0.8 1.371 0.914s0.457 0.114 0.686 0c0.229-0.114 0.686-0.343 1.371-0.914l1.371-0.914c0 0 0 0 0 0l8.914-6.286c0-0.343-0.114-0.571-0.229-0.8-0.229-0.571-0.686-1.029-1.257-1.257-0.571-0.343-1.714-0.343-3.657-0.343h-13.714c-1.943 0-3.086 0-3.657 0.343s-1.029 0.8-1.257 1.257c-0.114 0.229-0.114 0.457-0.229 0.8l8.914 6.286c0 0 0 0 0 0z"></path>
</symbol>
<symbol id="icon-open-book" viewBox="0 0 35 32">
<path fill="#4f2ee8" style="fill: var(--color1, #4f2ee8)" d="M34.352 7.713c-0.752-0.394-1.536-0.722-2.352-1.001v19.742c-1.824-0.673-3.696-1.017-5.6-1.017-3.040 0-6.048 0.886-8.8 2.593v-19.856c-2.592-1.526-5.584-2.429-8.8-2.429-2.864 0-5.568 0.722-7.952 1.969-0.528 0.263-0.848 0.837-0.848 1.444v19.824c0 0.952 0.752 1.625 1.6 1.625 0.256 0 0.512-0.066 0.768-0.197 1.936-1.034 4.112-1.69 6.432-1.69 3.312 0 6.368 1.346 8.8 3.282 2.432-1.936 5.488-3.282 8.8-3.282 2.32 0 4.496 0.656 6.432 1.707 0.256 0.131 0.512 0.197 0.768 0.197 0.832 0 1.6-0.673 1.6-1.625v-19.84c0-0.607-0.32-1.182-0.848-1.444zM14.4 26.453c-1.824-0.673-3.696-1.017-5.6-1.017s-3.776 0.345-5.6 1.017v-16.263c1.776-0.771 3.648-1.165 5.6-1.165 1.92 0 3.824 0.41 5.6 1.182v16.246zM28.8 0l-8 8.205v15.59l8-7.385v-16.41z"></path>
</symbol>
<symbol id="icon-trash-bin" viewBox="0 0 32 32">
<path fill="#4f2ee8" style="fill: var(--color1, #4f2ee8)" d="M32 16c0 8.837-7.163 16-16 16s-16-7.163-16-16c0-8.837 7.163-16 16-16s16 7.163 16 16z"></path>
<path fill="none" stroke="#fff" style="stroke: var(--color3, #fff)" stroke-linejoin="round" stroke-linecap="round" stroke-miterlimit="4" stroke-width="1.6842" d="M13.684 9.053h4.632M9.053 11.368h13.895M21.404 11.368l-0.541 8.12c-0.081 1.218-0.122 1.827-0.385 2.289-0.232 0.407-0.581 0.733-1.002 0.938-0.478 0.232-1.089 0.232-2.31 0.232h-2.33c-1.221 0-1.832 0-2.31-0.232-0.421-0.204-0.771-0.531-1.002-0.938-0.263-0.462-0.304-1.071-0.385-2.289l-0.541-8.12M14.456 14.842v3.86M17.544 14.842v3.86"></path>
</symbol>
<symbol id="icon-trident" viewBox="0 0 20 32">
<path fill="#fff" style="fill: var(--color3, #fff)" d="M9 30.9c-1.7-1.3-3-3.2-3.4-5.4h-5.6v-23.1c3 1.5 5.2 4.6 5.4 7.9l0.8 6.5h-0.4c-0.9 0-1.7 0.8-1.7 1.6s0.6 1.4 1.4 1.5l1 0.2c1.7-3.1 2.6-6 2.6-9 0-2.6-0.4-5.3-0.4-8 0.1-1.1 0.5-2.2 1.3-3.1 0.8 0.9 1.3 2 1.3 3.2 0 2.7-0.4 5.4-0.4 8 0 2.9 1 5.9 2.6 9l1-0.2c0.8-0.2 1.4-0.8 1.4-1.5 0-0.8-0.8-1.6-1.7-1.6l-0.4 0.1 0.8-6.5c0.4-3.5 2.4-6.6 5.4-8.1v23.1h-5.6c-0.4 2.2-1.6 4.1-3.4 5.4-0.4 0.3-0.8 0.6-1 1.1-0.2-0.5-0.6-0.8-1-1.1zM2.6 17.6c0.2-0.9 0.9-1.6 1.7-2.1l-0.7-5.4c-0.2-1.7-1-3.2-2-4.4v11.8l1 0.1zM5.5 23.9c0-0.8 0.1-1.5 0.3-2.3l-0.8-0.2c-1.1-0.3-2-1.2-2.3-2.3h-1v4.8h3.8zM9.2 23.9c0-1-0.8-1.8-1.8-2-0.2 0.6-0.3 1.3-0.3 2h2.1zM9.2 25.6h-1.9c0.3 1.3 1 2.4 1.9 3.4v-3.4zM11.8 20.5c-0.7-1.3-1.4-2.6-1.8-4-0.4 1.4-1.1 2.7-1.8 4 0.7 0.2 1.3 0.6 1.8 1.2 0.5-0.5 1.1-1 1.8-1.2zM13 23.9c0-0.7-0.1-1.3-0.3-2-1 0.1-1.8 1-1.8 2h2.1zM12.7 25.6h-1.9v3.4c1-1 1.6-2.2 1.9-3.4zM18.3 23.9v-4.8h-1c-0.3 1.1-1.2 2-2.3 2.3l-0.8 0.2c0.2 0.8 0.3 1.5 0.3 2.3h3.8zM18.3 17.6v-11.8c-1.1 1.2-1.9 2.7-2 4.4l-0.7 5.4c0.8 0.5 1.5 1.2 1.7 2.1h1z"></path>
</symbol>
<symbol id="icon-user" viewBox="0 0 23 32">
<path fill="#4f2ee8" style="fill: var(--color1, #4f2ee8)" d="M0.296 30.963c0-2.986 1.186-5.85 3.298-7.962s4.975-3.298 7.962-3.298 5.85 1.186 7.961 3.298c2.112 2.112 3.298 4.975 3.298 7.962h-22.518zM11.556 18.296c-4.666 0-8.444-3.779-8.444-8.444s3.779-8.444 8.444-8.444c4.666 0 8.444 3.779 8.444 8.444s-3.779 8.444-8.444 8.444z"></path>
</symbol>
<symbol id="icon-x-close" viewBox="0 0 32 32">
<path d="M24 25.714c-0.457 0-0.914-0.114-1.257-0.457l-6.743-6.857-6.743 6.743c-0.686 0.686-1.714 0.686-2.4 0s-0.686-1.714 0-2.4l6.743-6.743-6.857-6.743c-0.686-0.686-0.686-1.714 0-2.4s1.714-0.686 2.4 0l6.743 6.743 6.743-6.743c0.686-0.686 1.714-0.686 2.4 0s0.686 1.714 0 2.4l-6.629 6.743 6.743 6.743c0.686 0.686 0.686 1.714 0 2.4-0.229 0.457-0.686 0.571-1.143 0.571z"></path>
</symbol>

<symbol id="icon-caret-down" viewBox="0 0 28 32">
<path fill="#fff" style="fill: var(--color1, #fff)" d="M5.898 12h16.513l-7.423 8.391c-0.221 0.25-0.521 0.39-0.834 0.39s-0.613-0.14-0.834-0.39l-7.423-8.391z"></path>

<symbol id="icon-icloud" viewBox="0 0 32 32">
<path d="M14.295 14.296c0 2.673-2.138 4.839-4.775 4.839s-4.775-2.167-4.775-4.839c0-2.673 2.138-4.839 4.775-4.839s4.775 2.167 4.775 4.839z"></path>
<path d="M30.667 18.79c0-3.245-2.596-5.877-5.799-5.877s-5.799 2.631-5.799 5.877c0 0.117 0.011 0.231 0.017 0.346h-5.515c0.025-0.227 0.040-0.457 0.040-0.691 0-3.437-2.749-6.222-6.139-6.222s-6.139 2.785-6.139 6.222 2.749 6.222 6.139 6.222h17.861c3.043-0.18 5.333-2.748 5.333-5.877z"></path>
<path d="M13.45 17.041c-0.629-2.76-3.063-4.819-5.977-4.819-0.882 0-1.719 0.192-2.477 0.531-0.161 0.485-0.252 1.003-0.252 1.543 0 2.673 2.138 4.839 4.775 4.839 1.631 0.001 3.069-0.829 3.931-2.094z"></path>
<path d="M25.891 13.951c0 4.391-3.512 7.951-7.845 7.951s-7.845-3.56-7.845-7.951c0-4.391 3.512-7.951 7.845-7.951s7.845 3.56 7.845 7.951z"></path>
<path d="M11.349 9.826c-0.723 1.203-1.147 2.612-1.147 4.124 0 1.739 0.557 3.343 1.491 4.651 1.543-0.802 2.601-2.427 2.601-4.305 0.001-2.015-1.216-3.742-2.945-4.47z"></path>
<path d="M10.271 12.912c-0.045 0.34-0.070 0.686-0.070 1.039 0 1.739 0.557 3.341 1.491 4.65 0.003-0.002 0.007-0.003 0.011-0.005 0.377-0.197 0.724-0.443 1.035-0.73 0.027-0.025 0.051-0.053 0.077-0.079 0.119-0.115 0.233-0.235 0.339-0.361 0.047-0.055 0.089-0.115 0.133-0.172 0.056-0.073 0.109-0.149 0.161-0.225-0.413-1.798-1.596-3.293-3.175-4.117z"></path>
<path d="M19.070 18.79c0 1.055 0.278 2.042 0.757 2.897 3.473-0.819 6.064-3.968 6.064-7.737 0-0.322-0.025-0.637-0.061-0.949-0.313-0.053-0.633-0.087-0.962-0.087-3.202 0-5.798 2.631-5.798 5.877z"></path>
</symbol>
<symbol id="icon-github" viewBox="0 0 32 32">
<path d="M16 3c-7.18 0-13 5.82-13 13 0 6.139 4.256 11.28 9.977 12.643-0.296-0.070-0.589-0.149-0.877-0.239v-2.979c0 0-0.488 0.163-1.137 0.163-1.819 0-2.574-1.622-2.763-2.438-0.114-0.497-0.413-0.967-0.734-1.255-0.383-0.342-0.563-0.343-0.566-0.46-0.005-0.245 0.329-0.235 0.487-0.235 0.813 0 1.428 0.864 1.714 1.311 0.709 1.104 1.469 1.288 1.861 1.288 0.488 0 0.909-0.073 1.198-0.213 0.134-0.944 0.554-1.785 1.239-2.387-3.049-0.61-5.2-2.358-5.2-5.2 0-1.464 0.588-2.809 1.566-3.896-0.1-0.284-0.267-0.857-0.267-1.791 0-0.617 0.043-1.376 0.325-2.113 0 0 1.854 0.013 3.603 1.669 0.807-0.235 1.671-0.369 2.572-0.369s1.766 0.134 2.572 0.369c1.748-1.656 3.602-1.669 3.602-1.669 0.284 0.737 0.325 1.495 0.325 2.113 0 1.008-0.134 1.595-0.216 1.848 0.949 1.076 1.516 2.401 1.516 3.839 0 2.842-2.151 4.59-5.2 5.2 0.814 0.715 1.3 1.756 1.3 2.925v4.279c-0.288 0.090-0.581 0.169-0.878 0.239 5.721-1.363 9.977-6.505 9.977-12.643 0-7.18-5.82-13-13-13zM16.907 28.965c-0.299 0.021-0.602 0.035-0.907 0.035 0.305 0 0.607-0.015 0.907-0.035zM18.893 28.673c-0.582 0.133-1.178 0.226-1.788 0.277 0.609-0.052 1.206-0.145 1.788-0.277zM16 29c-0.305 0-0.607-0.014-0.906-0.035 0.3 0.020 0.601 0.035 0.906 0.035zM14.894 28.95c-0.608-0.052-1.206-0.145-1.787-0.277 0.582 0.132 1.178 0.226 1.787 0.277z"></path>
</symbol>
<symbol id="icon-google" viewBox="0 0 32 32">
<path fill="#fbc02d" style="fill: var(--color1, #fbc02d)" d="M29.074 13.389h-1.074v-0.055h-12v5.333h7.535c-1.099 3.105-4.053 5.333-7.535 5.333-4.418 0-8-3.582-8-8s3.582-8 8-8c2.039 0 3.895 0.769 5.307 2.026l3.771-3.771c-2.381-2.219-5.567-3.588-9.079-3.588-7.363 0-13.333 5.97-13.333 13.333s5.97 13.333 13.333 13.333 13.333-5.97 13.333-13.333c0-0.894-0.092-1.767-0.259-2.611z"></path>
<path fill="#e53935" style="fill: var(--color2, #e53935)" d="M4.204 9.794l4.381 3.213c1.185-2.935 4.056-5.007 7.415-5.007 2.039 0 3.895 0.769 5.307 2.026l3.771-3.771c-2.381-2.219-5.567-3.588-9.079-3.588-5.121 0-9.563 2.891-11.796 7.127z"></path>
<path fill="#4caf50" style="fill: var(--color3, #4caf50)" d="M16 29.333c3.444 0 6.573-1.318 8.939-3.461l-4.127-3.492c-1.339 1.014-3.003 1.62-4.813 1.62-3.468 0-6.413-2.211-7.522-5.297l-4.348 3.35c2.207 4.318 6.688 7.281 11.87 7.281z"></path>
<path fill="#1565c0" style="fill: var(--color4, #1565c0)" d="M29.074 13.389l-0.011-0.055h-13.063v5.333h7.535c-0.528 1.491-1.487 2.777-2.725 3.714 0.001-0.001 0.001-0.001 0.002-0.001l4.127 3.492c-0.292 0.265 4.394-3.205 4.394-9.871 0-0.894-0.092-1.767-0.259-2.611z"></path>

</symbol>
<symbol id="icon-Bookshelf" viewBox="0 0 178 32">
<path d="M22.176 8.533c0-4.731-3.497-7.406-9.545-7.406h-12.631v29.417h13.33c6.089 0 9.998-2.921 9.998-8.599 0-4.402-2.633-6.665-5.719-7.2v-0.082c2.427-0.823 4.567-2.51 4.567-6.13zM4.896 13.305v-8.023h7.858c2.921 0 4.526 1.44 4.526 4.032s-1.317 3.991-4.814 3.991h-7.57zM4.896 16.967h8.599c3.086 0 4.937 1.687 4.937 4.69 0 2.757-1.275 4.731-5.472 4.731h-8.064v-9.422z"></path>
<path d="M35.89 31.161c-6.583 0-10.574-4.567-10.574-11.109s3.991-11.109 10.574-11.109c6.583 0 10.574 4.567 10.574 11.109s-3.991 11.109-10.574 11.109zM35.89 27.623c4.114 0 6.254-3.25 6.254-7.57 0-4.361-2.139-7.57-6.254-7.57s-6.254 3.209-6.254 7.57c0 4.32 2.139 7.57 6.254 7.57z"></path>
<path d="M58.912 31.161c-6.583 0-10.574-4.567-10.574-11.109s3.991-11.109 10.574-11.109c6.583 0 10.574 4.567 10.574 11.109s-3.991 11.109-10.574 11.109zM58.912 27.623c4.114 0 6.254-3.25 6.254-7.57 0-4.361-2.139-7.57-6.254-7.57s-6.254 3.209-6.254 7.57c0 4.32 2.139 7.57 6.254 7.57z"></path>
<path d="M72.472 1.127v29.417h4.32v-7.611l2.921-2.757 6.624 10.368h5.184l-8.846-13.207 7.982-7.817h-5.307l-8.558 8.434v-16.827h-4.32z"></path>
<path d="M101.935 17.831c-3.045-0.699-5.39-0.864-5.39-3.003 0-1.481 1.399-2.469 3.991-2.469 3.374 0 4.197 1.687 4.485 3.333h4.197c-0.288-3.662-3.003-6.747-8.722-6.747-5.266 0-8.311 2.757-8.311 6.213 0 4.773 4.526 5.431 7.858 6.213 3.086 0.741 5.595 0.946 5.595 3.579 0 1.317-1.275 2.798-4.279 2.798-4.443 0-5.431-1.934-5.637-4.197h-4.197c0.206 4.443 3.127 7.611 9.915 7.611 5.102 0 8.558-2.51 8.558-6.542 0-5.019-4.197-5.883-8.064-6.789z"></path>
<path d="M124.123 8.944c-3.538 0-5.719 1.646-6.83 3.291h-0.082v-11.109h-4.32v29.417h4.32v-12.795c0-3.127 2.263-5.143 5.431-5.143 3.003 0 4.197 1.81 4.197 4.649v13.289h4.361v-14.523c0-4.814-3.086-7.077-7.077-7.077z"></path>
<path d="M144.448 27.623c-3.826 0-6.089-2.921-6.089-6.459h16.128c0-7.488-3.333-12.219-10.121-12.219-6.336 0-10.327 4.279-10.327 11.109 0 6.583 3.991 11.109 10.533 11.109 5.39 0 8.517-3.045 9.586-7.035h-4.32c-0.37 1.275-1.81 3.497-5.39 3.497zM144.366 12.359c3.497 0 5.801 2.345 5.801 5.595h-11.808c0-3.25 2.51-5.595 6.007-5.595z"></path>
<path d="M157.531 1.127v29.417h4.361v-29.417h-4.361z"></path>
<path d="M176.003 4.665v-3.538c-0.864-0.165-1.81-0.288-2.88-0.288-3.456 0-5.349 1.563-5.349 6.007v2.674h-3.003v3.538h3.003v17.486h4.361v-17.486h3.867v-3.538h-3.867v-2.304c0-2.386 1.070-2.674 3.867-2.551z"></path>
</symbol>
<symbol id="icon-eye" viewBox="0 0 32 32">
<path d="M16 6c-6.979 0-13.028 4.064-16 10 2.972 5.936 9.021 10 16 10s13.027-4.064 16-10c-2.972-5.936-9.021-10-16-10zM23.889 11.303c1.88 1.199 3.473 2.805 4.67 4.697-1.197 1.891-2.79 3.498-4.67 4.697-2.362 1.507-5.090 2.303-7.889 2.303s-5.527-0.796-7.889-2.303c-1.88-1.199-3.473-2.805-4.67-4.697 1.197-1.891 2.79-3.498 4.67-4.697 0.122-0.078 0.246-0.154 0.371-0.228-0.311 0.854-0.482 1.776-0.482 2.737 0 4.418 3.582 8 8 8s8-3.582 8-8c0-0.962-0.17-1.883-0.482-2.737 0.124 0.074 0.248 0.15 0.371 0.228v0zM16 13c0 1.657-1.343 3-3 3s-3-1.343-3-3 1.343-3 3-3 3 1.343 3 3z"></path>
</symbol>
<symbol id="icon-eye-blocked" viewBox="0 0 32 32">
<path d="M29.561 0.439c-0.586-0.586-1.535-0.586-2.121 0l-6.318 6.318c-1.623-0.492-3.342-0.757-5.122-0.757-6.979 0-13.028 4.064-16 10 1.285 2.566 3.145 4.782 5.407 6.472l-4.968 4.968c-0.586 0.586-0.586 1.535 0 2.121 0.293 0.293 0.677 0.439 1.061 0.439s0.768-0.146 1.061-0.439l27-27c0.586-0.586 0.586-1.536 0-2.121zM13 10c1.32 0 2.44 0.853 2.841 2.037l-3.804 3.804c-1.184-0.401-2.037-1.521-2.037-2.841 0-1.657 1.343-3 3-3zM3.441 16c1.197-1.891 2.79-3.498 4.67-4.697 0.122-0.078 0.246-0.154 0.371-0.228-0.311 0.854-0.482 1.776-0.482 2.737 0 1.715 0.54 3.304 1.459 4.607l-1.904 1.904c-1.639-1.151-3.038-2.621-4.114-4.323z"></path>
<path d="M24 13.813c0-0.849-0.133-1.667-0.378-2.434l-10.056 10.056c0.768 0.245 1.586 0.378 2.435 0.378 4.418 0 8-3.582 8-8z"></path>
<path d="M25.938 9.062l-2.168 2.168c0.040 0.025 0.079 0.049 0.118 0.074 1.88 1.199 3.473 2.805 4.67 4.697-1.197 1.891-2.79 3.498-4.67 4.697-2.362 1.507-5.090 2.303-7.889 2.303-1.208 0-2.403-0.149-3.561-0.439l-2.403 2.403c1.866 0.671 3.873 1.036 5.964 1.036 6.978 0 13.027-4.064 16-10-1.407-2.81-3.504-5.2-6.062-6.938z"></path>
</symbol>
<symbol id="icon-trash-03" viewBox="0 0 32 32">
<path fill="none" stroke="#fff" style="stroke: var(--color1, #fff)" stroke-linejoin="round" stroke-linecap="round" stroke-miterlimit="4" stroke-width="2.6667" d="M12 4h8M4 8h24M25.333 8l-0.935 14.026c-0.14 2.104-0.21 3.156-0.665 3.954-0.4 0.702-1.004 1.267-1.731 1.62-0.826 0.4-1.881 0.4-3.99 0.4h-4.025c-2.109 0-3.163 0-3.99-0.4-0.727-0.353-1.331-0.917-1.731-1.62-0.455-0.798-0.525-1.85-0.665-3.954l-0.935-14.026M13.333 14v6.667M18.667 14v6.667"></path>
</symbol>

<symbol id="icon-heart" viewBox="0 0 35 32">
<path fill="#fecb00" style="fill: var(--color1, #fecb00)" d="M31.552 18.346c-0.116 0.002-0.233 0.010-0.35 0.009-0.359-0.002-0.716-0.015-1.073-0.038s-0.714-0.056-1.069-0.098c-0.355-0.042-0.709-0.093-1.062-0.152s-0.705-0.126-1.056-0.2c-0.351-0.074-0.701-0.156-1.049-0.243s-0.695-0.181-1.041-0.28c-0.346-0.099-0.69-0.203-1.033-0.311s-0.683-0.221-1.023-0.337c-0.679-0.232-1.356-0.479-2.032-0.732s-1.352-0.512-2.029-0.771c-0.676-0.259-1.353-0.518-2.031-0.769s-1.357-0.494-2.039-0.723c-0.341-0.114-0.683-0.224-1.025-0.33s-0.686-0.206-1.029-0.301c-0.344-0.095-0.688-0.185-1.034-0.269s-0.693-0.161-1.041-0.23c-0.348-0.069-0.697-0.132-1.047-0.185s-0.701-0.099-1.054-0.136c-0.353-0.036-0.706-0.063-1.062-0.080s-0.713-0.024-1.071-0.020c-0.369 0.004-0.738 0.021-1.106 0.050s-0.736 0.068-1.101 0.12c-0.365 0.052-0.729 0.116-1.091 0.191s-0.72 0.162-1.076 0.261c-0.356 0.098-0.708 0.207-1.057 0.328-0.076 0.026-0.15 0.059-0.226 0.087 1.409 4.55 5.199 9.262 11.973 15.042 2.432 2.075 4.557 3.773 4.721 3.773 0.802 0 7.029-5.31 10.192-8.691 1.587-1.697 2.926-3.356 4.022-4.963z"></path>
<path fill="#0068c2" style="fill: var(--color2, #0068c2)" d="M8.317 0c-1.596 0.014-3.153 0.372-4.323 1.107-3.022 1.898-4.040 3.954-3.993 8.060 0.015 1.341 0.226 2.673 0.643 4.018 0.076-0.027 0.15-0.061 0.226-0.087 0.349-0.121 0.701-0.23 1.057-0.328s0.714-0.185 1.076-0.261c0.361-0.075 0.725-0.139 1.091-0.191s0.733-0.092 1.101-0.12c0.368-0.028 0.737-0.045 1.106-0.050 0.359-0.004 0.716 0.003 1.071 0.020s0.709 0.044 1.062 0.080c0.353 0.036 0.704 0.082 1.054 0.136s0.699 0.116 1.047 0.185c0.348 0.069 0.695 0.147 1.041 0.23s0.69 0.173 1.034 0.269c0.344 0.095 0.687 0.195 1.029 0.301s0.684 0.216 1.025 0.33c0.682 0.228 1.361 0.472 2.039 0.723s1.355 0.51 2.031 0.769c0.676 0.259 1.352 0.518 2.029 0.771s1.354 0.5 2.032 0.732c0.339 0.116 0.68 0.229 1.023 0.337s0.687 0.213 1.033 0.311c0.346 0.099 0.693 0.193 1.041 0.28s0.698 0.169 1.049 0.243c0.351 0.074 0.703 0.141 1.056 0.2s0.707 0.11 1.062 0.152c0.355 0.042 0.712 0.075 1.069 0.098s0.715 0.036 1.073 0.038c0.116 0.001 0.233-0.007 0.35-0.009 4.505-6.612 4.829-12.352 0.748-16.262-1.387-1.329-2.477-1.762-4.955-1.967-3.873-0.321-6.375 0.808-8.269 3.732-1.509 2.329-1.992 2.52-2.48 0.982-0.189-0.595-1.14-1.845-2.115-2.778-1.415-1.356-3.831-2.072-6.163-2.052z"></path>
<path fill="#000" style="fill: var(--color3, #000)" opacity="0.217903" d="M21.689 27.451c7.613-8.093 10.49-13.114 10.5-18.323 0.007-4.137-1.26-6.453-4.332-7.913l-2.481-1.179 2.586 0.289c4.755 0.531 7.77 5.211 6.879 10.678-0.672 4.123-3.268 8.132-8.943 13.809-6.573 6.576-9.838 8.623-4.209 2.64zM14.238 5.404c-1.238-2.244-2.277-3.278-4.15-4.128-2.431-1.103-2.45-1.135-0.72-1.145 3.317-0.020 8.335 4.48 7.862 7.051-0.322 1.752-1.397 1.113-2.992-1.777z"></path>
<path fill="#fff" style="fill: var(--color4, #fff)" opacity="0.367623" d="M6.444 2.729c-0.727-0.004-1.504 0.456-2.448 1.4-2.635 2.375-1.052 11.816 0.124 5.816 0.217-0.989 1.66-2.366 2.594-3.057 2.161-1.598 2.531-2.17 1.392-3.308-0.561-0.561-1.096-0.847-1.662-0.851zM24.069 2.86c-1.031-0.007-2.121 0.773-2.858 2.198-1.161 2.245-0.507 2.359 1.193 2.359 0.797 0 1.571-0.651 2.486-1.445 1.544-1.341 1.594-1.515 0.692-2.432-0.449-0.456-0.973-0.676-1.514-0.68z"></path>
</symbol>
</defs>
</svg>
