<svg width="38" height="38" viewBox="0 0 38 38" fill="none" xmlns="http://www.w3.org/2000/svg">
<ellipse cx="19" cy="19" rx="19" ry="19" fill="#4F2EE8"/>
<path d="M16.25 10.75H21.75M10.75 13.5H27.25M25.4167 13.5L24.7738 23.1427C24.6774 24.5894 24.6291 25.3128 24.3167 25.8613C24.0416 26.3441 23.6266 26.7323 23.1265 26.9747C22.5585 27.25 21.8335 27.25 20.3836 27.25H17.6164C16.1665 27.25 15.4415 27.25 14.8735 26.9747C14.3734 26.7323 13.9584 26.3441 13.6833 25.8613C13.3709 25.3128 13.3226 24.5894 13.2262 23.1427L12.5833 13.5M17.1667 17.625V22.2083M20.8333 17.625V22.2083" stroke="white" stroke-width="2" stroke-linecap="round" stroke-linejoin="round"/>
</svg>
