<?xml version="1.0" encoding="utf-8"?>
<!-- Generator: Adobe Illustrator 27.4.1, SVG Export Plug-In . SVG Version: 6.00 Build 0)  -->
<svg version="1.1" id="Layer_1" xmlns="http://www.w3.org/2000/svg" xmlns:xlink="http://www.w3.org/1999/xlink" x="0px" y="0px"
	 viewBox="0 0 28 28" style="enable-background:new 0 0 28 28;" xml:space="preserve">
<style type="text/css">
	.st0{fill:#111111;}
</style>
<g>
	<path class="st0" d="M18.9,25.5H9.1c-2.1,0-3.2,0-4.1-0.5c-0.9-0.4-1.5-1.1-2-2c-0.5-1-0.5-2-0.5-4.1v-0.5c0-2.1,0-3.2,0.5-4.1
		c0.4-0.9,1.1-1.5,2-2c0.6-0.3,1.3-0.4,2.2-0.5V9.3c0-3.8,3.1-6.8,6.8-6.8c3.8,0,6.8,3.1,6.8,6.8v2.5c0.9,0,1.6,0.2,2.2,0.5
		c0.9,0.4,1.5,1.1,2,2c0.5,1,0.5,2,0.5,4.1v0.5c0,2.1,0,3.2-0.5,4.1c-0.4,0.8-1.1,1.5-2,2C22.1,25.5,21,25.5,18.9,25.5z M9.1,13.8
		c-1.7,0-2.7,0-3.2,0.3c-0.5,0.2-0.9,0.6-1.1,1.1c-0.3,0.5-0.3,1.5-0.3,3.2v0.5c0,1.7,0,2.7,0.3,3.2C5,22.6,5.4,23,5.9,23.2
		c0.5,0.3,1.5,0.3,3.2,0.3h9.8c1.7,0,2.7,0,3.2-0.3c0.5-0.2,0.9-0.6,1.1-1.1c0.3-0.5,0.3-1.5,0.3-3.2v-0.5c0-1.7,0-2.7-0.3-3.2
		c-0.2-0.5-0.6-0.9-1.1-1.1c-0.5-0.3-1.5-0.3-3.2-0.3H9.1z M9.2,11.8h9.7V9.3c0-2.7-2.2-4.8-4.8-4.8S9.2,6.7,9.2,9.3V11.8z"/>
</g>
</svg>
