<?xml version="1.0" encoding="utf-8"?>
<!-- Generator: Adobe Illustrator 27.4.1, SVG Export Plug-In . SVG Version: 6.00 Build 0)  -->
<svg version="1.1" id="Layer_1" xmlns="http://www.w3.org/2000/svg" xmlns:xlink="http://www.w3.org/1999/xlink" x="0px" y="0px"
	 viewBox="0 0 28 28" style="enable-background:new 0 0 28 28;" xml:space="preserve">
<style type="text/css">
	.st0{fill:#111111;}
</style>
<g>
	<path class="st0" d="M20.1,24.3H7.9c-2.1,0-3.2,0-4.1-0.5c-0.9-0.4-1.5-1.1-2-2c-0.5-1-0.5-2-0.5-4.1v-7.5c0-0.7,0-1.4,0-1.9
		c0-0.2,0-0.4,0-0.5c0.1-0.7,0.2-1.2,0.4-1.7c0.4-0.9,1.1-1.5,2-2c1-0.5,2-0.5,4.1-0.5h12.1c2.1,0,3.2,0,4.1,0.5
		c0.9,0.4,1.5,1.1,2,2c0.3,0.5,0.4,1,0.4,1.7c0.1,0.2,0.1,0.4,0,0.5c0,0.5,0,1.1,0,1.9v7.5c0,2.1,0,3.2-0.5,4.1
		c-0.4,0.9-1.1,1.5-2,2C23.2,24.3,22.2,24.3,20.1,24.3z M3.9,21.4c0.2,0.3,0.5,0.5,0.8,0.6c0.5,0.3,1.5,0.3,3.2,0.3h12.1
		c1.7,0,2.7,0,3.2-0.3c0.3-0.2,0.6-0.4,0.8-0.6l-6.8-6.2l-0.5,0.4c-0.8,0.6-1.3,0.9-1.9,1.1c-0.5,0.1-1.1,0.1-1.6,0
		c-0.6-0.1-1.1-0.5-1.9-1.1l-0.5-0.4L3.9,21.4z M18.9,14.1l5.7,5.2c0-0.4,0-0.9,0-1.5v-7.5c0-0.1,0-0.1,0-0.2L18.9,14.1z M3.3,10.1
		c0,0.1,0,0.1,0,0.2v7.5c0,0.6,0,1.1,0,1.5l5.7-5.2L3.3,10.1z M11.2,13.2l1.2,0.8c0.6,0.4,1,0.7,1.2,0.8c0.2,0.1,0.4,0.1,0.6,0
		c0.2-0.1,0.6-0.3,1.2-0.8l1.2-0.8c0,0,0,0,0,0l7.8-5.5c0-0.3-0.1-0.5-0.2-0.7c-0.2-0.5-0.6-0.9-1.1-1.1c-0.5-0.3-1.5-0.3-3.2-0.3
		H7.9c-1.7,0-2.7,0-3.2,0.3C4.2,6.2,3.8,6.6,3.6,7C3.5,7.2,3.5,7.4,3.4,7.7L11.2,13.2C11.2,13.2,11.2,13.2,11.2,13.2z"/>
</g>
</svg>
