<?xml version="1.0" encoding="utf-8"?>
<!-- Generator: Adobe Illustrator 27.4.1, SVG Export Plug-In . SVG Version: 6.00 Build 0)  -->
<svg version="1.1" id="Layer_1" xmlns="http://www.w3.org/2000/svg" xmlns:xlink="http://www.w3.org/1999/xlink" x="0px" y="0px"
	 viewBox="0 0 20 32" style="enable-background:new 0 0 20 32;" xml:space="preserve">
<style type="text/css">
	.st0{fill:#FFFFFF;}
</style>
<path class="st0" d="M9,30.9c-1.7-1.3-3-3.2-3.4-5.4H0V2.4C3,3.9,5.2,7,5.4,10.3l0.8,6.5l-0.4,0c-0.9,0-1.7,0.8-1.7,1.6
	c0,0.8,0.6,1.4,1.4,1.5l1,0.2c1.7-3.1,2.6-6,2.6-9c0-2.6-0.4-5.3-0.4-8C8.8,2,9.2,0.9,10,0c0.8,0.9,1.3,2,1.3,3.2
	c0,2.7-0.4,5.4-0.4,8c0,2.9,1,5.9,2.6,9l1-0.2c0.8-0.2,1.4-0.8,1.4-1.5c0-0.8-0.8-1.6-1.7-1.6l-0.4,0.1l0.8-6.5C15,7,17,3.9,20,2.4
	v23.1h-5.6c-0.4,2.2-1.6,4.1-3.4,5.4c-0.4,0.3-0.8,0.6-1,1.1C9.8,31.5,9.4,31.2,9,30.9z M2.6,17.6c0.2-0.9,0.9-1.6,1.7-2.1l-0.7-5.4
	c-0.2-1.7-1-3.2-2-4.4v11.8L2.6,17.6L2.6,17.6z M5.5,23.9c0-0.8,0.1-1.5,0.3-2.3L5,21.4c-1.1-0.3-2-1.2-2.3-2.3h-1v4.8H5.5z
	 M9.2,23.9c0-1-0.8-1.8-1.8-2c-0.2,0.6-0.3,1.3-0.3,2H9.2z M9.2,25.6H7.3c0.3,1.3,1,2.4,1.9,3.4V25.6z M11.8,20.5
	c-0.7-1.3-1.4-2.6-1.8-4c-0.4,1.4-1.1,2.7-1.8,4c0.7,0.2,1.3,0.6,1.8,1.2C10.5,21.2,11.1,20.7,11.8,20.5z M13,23.9
	c0-0.7-0.1-1.3-0.3-2c-1,0.1-1.8,1-1.8,2H13z M12.7,25.6h-1.9v3.4C11.8,28,12.4,26.8,12.7,25.6z M18.3,23.9v-4.8h-1
	c-0.3,1.1-1.2,2-2.3,2.3l-0.8,0.2c0.2,0.8,0.3,1.5,0.3,2.3H18.3z M18.3,17.6V5.8c-1.1,1.2-1.9,2.7-2,4.4l-0.7,5.4
	c0.8,0.5,1.5,1.2,1.7,2.1H18.3z"/>
</svg>
