<?xml version="1.0" encoding="utf-8"?>
<!-- Generator: Adobe Illustrator 27.4.1, SVG Export Plug-In . SVG Version: 6.00 Build 0)  -->
<svg version="1.1" id="Layer_1" xmlns="http://www.w3.org/2000/svg" xmlns:xlink="http://www.w3.org/1999/xlink" x="0px" y="0px"
	 viewBox="0 0 28 28" style="enable-background:new 0 0 28 28;" xml:space="preserve">
<style type="text/css">
	.st0{fill:#111111;}
</style>
<g>
	<path class="st0" d="M21,22.5c-0.4,0-0.8-0.1-1.1-0.4L14,16.1l-5.9,5.9c-0.6,0.6-1.5,0.6-2.1,0s-0.6-1.5,0-2.1l5.9-5.9L5.9,8.1
		c-0.6-0.6-0.6-1.5,0-2.1c0.6-0.6,1.5-0.6,2.1,0l5.9,5.9l5.9-5.9c0.6-0.6,1.5-0.6,2.1,0c0.6,0.6,0.6,1.5,0,2.1L16.1,14l5.9,5.9
		c0.6,0.6,0.6,1.5,0,2.1C21.8,22.4,21.4,22.5,21,22.5z"/>
</g>
</svg>
